<?xml version="1.0" encoding="UTF-8" standalone="no"?>
<!-- Created with Inkscape (http://www.inkscape.org/) -->

<svg
   xmlns:dc="http://purl.org/dc/elements/1.1/"
   xmlns:cc="http://creativecommons.org/ns#"
   xmlns:rdf="http://www.w3.org/1999/02/22-rdf-syntax-ns#"
   xmlns:svg="http://www.w3.org/2000/svg"
   xmlns="http://www.w3.org/2000/svg"
   xmlns:sodipodi="http://sodipodi.sourceforge.net/DTD/sodipodi-0.dtd"
   xmlns:inkscape="http://www.inkscape.org/namespaces/inkscape"
   width="256"
   height="256"
   viewBox="0 0 67.733332 67.733335"
   version="1.1"
   id="svg6095"
   inkscape:version="0.92.0 r15299"
   sodipodi:docname="logo256.svg">
  <defs
     id="defs6089">
    <linearGradient
       x1="0"
       y1="0"
       x2="1"
       y2="0"
       gradientUnits="userSpaceOnUse"
       gradientTransform="matrix(284.93726,-22.795029,-22.795029,-284.93726,71.476562,415.75977)"
       spreadMethod="pad"
       id="linearGradient4625">
      <stop
         style="stop-opacity:1;stop-color:#c99100"
         offset="0"
         id="stop4607" />
      <stop
         style="stop-opacity:1;stop-color:#efca00"
         offset="0.23953487"
         id="stop4609" />
      <stop
         style="stop-opacity:1;stop-color:#efca00"
         offset="0.393448"
         id="stop4611" />
      <stop
         style="stop-opacity:1;stop-color:#efca00"
         offset="0.62299657"
         id="stop4613" />
      <stop
         style="stop-opacity:1;stop-color:#efca00"
         offset="0.770493"
         id="stop4615" />
      <stop
         style="stop-opacity:1;stop-color:#c99100"
         offset="0.84035145"
         id="stop4617" />
      <stop
         style="stop-opacity:1;stop-color:#c99100"
         offset="0.885239"
         id="stop4619" />
      <stop
         style="stop-opacity:1;stop-color:#efca00"
         offset="0.95510658"
         id="stop4621" />
      <stop
         style="stop-opacity:1;stop-color:#efca00"
         offset="1"
         id="stop4623" />
    </linearGradient>
  </defs>
  <sodipodi:namedview
     id="base"
     pagecolor="#ffffff"
     bordercolor="#666666"
     borderopacity="1.0"
     inkscape:pageopacity="0.0"
     inkscape:pageshadow="2"
     inkscape:zoom="1.4"
     inkscape:cx="52"
     inkscape:cy="74.285714"
     inkscape:document-units="mm"
     inkscape:current-layer="layer1"
     showgrid="false"
     units="px"
     inkscape:window-width="1920"
     inkscape:window-height="1017"
     inkscape:window-x="-8"
     inkscape:window-y="-8"
     inkscape:window-maximized="1" />
  <metadata
     id="metadata6092">
    <rdf:RDF>
      <cc:Work
         rdf:about="">
        <dc:format>image/svg+xml</dc:format>
        <dc:type
           rdf:resource="http://purl.org/dc/dcmitype/StillImage" />
        <dc:title></dc:title>
      </cc:Work>
    </rdf:RDF>
  </metadata>
  <g
     inkscape:label="Capa 1"
     inkscape:groupmode="layer"
     id="layer1"
     transform="translate(0,-229.26665)">
    <g
       id="g4595"
       transform="matrix(0.16683688,0,0,-0.1615613,2.238223,332.44891)">
      <g
         id="g4597">
        <g
           id="g4603">
          <g
             id="g4605">
            <path
               d="m 50.445,444.227 c -13.574,0 -24.581,-11.006 -24.581,-24.581 v 0 -25.995 c 0,-13.577 11.007,-24.584 24.581,-24.584 v 0 h 269.88 c 13.578,0 24.586,11.007 24.586,24.584 v 0 25.995 c 0,13.575 -11.008,24.581 -24.586,24.581 v 0 z"
               style="fill:url(#linearGradient4625);stroke:none"
               id="path4627"
               inkscape:connector-curvature="0" />
          </g>
        </g>
      </g>
    </g>
    <g
       id="g4637"
       transform="matrix(0.16683688,0,0,-0.1615613,10.654359,260.93359)">
      <path
         d="M 0,0 C -12.684,0 -23.009,-10.322 -23.009,-23.006 V -49 c 0,-12.688 10.325,-23.012 23.009,-23.012 h 269.88 c 12.689,0 23.009,10.324 23.009,23.012 v 25.994 C 292.889,-10.322 282.569,0 269.88,0 Z M 269.88,-75.161 H 0 c -14.423,0 -26.157,11.737 -26.157,26.161 v 25.994 C -26.157,-8.582 -14.423,3.15 0,3.15 h 269.88 c 14.426,0 26.158,-11.732 26.158,-26.156 V -49 c 0,-14.424 -11.732,-26.161 -26.158,-26.161"
         style="fill:#1f120d;fill-opacity:1;fill-rule:nonzero;stroke:none"
         id="path4639"
         inkscape:connector-curvature="0" />
    </g>
    <g
       id="g4641"
       transform="matrix(0.16683688,0,0,-0.1615613,8.2792202,271.68893)">
      <path
         d="m 0,0 v 44.286 c 0,2.54 0.473,4.902 1.425,7.097 0.952,2.189 2.263,4.093 3.933,5.706 1.674,1.674 3.593,2.984 5.755,3.939 2.163,0.948 4.511,1.425 7.05,1.425 h 41.26 V 53.112 H 18.767 c -1.209,0 -2.349,-0.232 -3.415,-0.691 C 14.284,51.959 13.346,51.32 12.54,50.515 10.81,48.788 9.915,46.679 9.856,44.2 v -6.746 h 49.567 v -9.34 H 9.856 V 0 Z"
         style="fill:#1f120d;fill-opacity:1;fill-rule:nonzero;stroke:none"
         id="path4643"
         inkscape:connector-curvature="0" />
    </g>
    <g
       id="g4645"
       transform="matrix(0.16683688,0,0,-0.1615613,22.377754,271.68893)">
      <path
         d="m 0,0 c -2.535,0 -4.9,0.462 -7.09,1.388 -2.193,0.918 -4.125,2.216 -5.796,3.888 -1.675,1.674 -2.971,3.606 -3.891,5.795 -0.924,2.192 -1.385,4.557 -1.385,7.096 v 26.119 c 0,2.54 0.461,4.902 1.385,7.097 0.92,2.189 2.216,4.093 3.891,5.706 1.671,1.674 3.603,2.984 5.796,3.939 2.19,0.948 4.555,1.425 7.09,1.425 H 41.176 V 53.112 H 0.607 c -1.267,0 -2.436,-0.232 -3.503,-0.691 C -3.964,51.959 -4.9,51.32 -5.707,50.515 -6.515,49.707 -7.147,48.771 -7.609,47.707 -8.072,46.64 -8.303,45.468 -8.303,44.2 v -6.746 h 49.479 v -9.34 H -8.303 v -9.861 c 0,-1.27 0.231,-2.437 0.694,-3.503 0.462,-1.067 1.094,-2.003 1.902,-2.812 1.729,-1.73 3.835,-2.593 6.314,-2.593 H 43.77 V 0 Z"
         style="fill:#1f120d;fill-opacity:1;fill-rule:nonzero;stroke:none"
         id="path4647"
         inkscape:connector-curvature="0" />
    </g>
    <path
       d="M 43.894721,261.59897 H 45.5404 v 10.08998 h -1.645679 z"
       style="fill:#1f120d;fill-opacity:1;fill-rule:nonzero;stroke:none;stroke-width:0.16417788"
       id="path4649"
       inkscape:connector-curvature="0" />
    <g
       id="g4651"
       transform="matrix(0.16683688,0,0,-0.1615613,56.651,271.68893)">
      <path
         d="m 0,0 v 20.327 c 0,1.212 -0.229,2.351 -0.688,3.417 -0.464,1.067 -1.096,2.005 -1.904,2.814 -1.671,1.67 -3.776,2.562 -6.315,2.68 h -30.358 c -2.484,-0.118 -4.554,-1.01 -6.232,-2.68 -1.726,-1.619 -2.591,-3.692 -2.591,-6.231 V 0 h -9.864 v 20.415 c 0,2.653 0.537,5.129 1.605,7.439 1.065,2.305 2.518,4.295 4.363,5.967 -1.845,1.672 -3.298,3.66 -4.363,5.968 -1.068,2.306 -1.605,4.815 -1.605,7.528 v 15.136 h 9.864 v -15.05 c 0,-2.541 0.865,-4.613 2.591,-6.232 1.678,-1.672 3.748,-2.563 6.232,-2.68 h 30.358 c 2.48,0.059 4.586,0.953 6.315,2.68 0.808,0.808 1.44,1.75 1.904,2.813 C -0.229,45.052 0,46.19 0,47.403 v 15.05 H 9.864 V 47.317 C 9.864,44.604 9.33,42.095 8.266,39.789 7.197,37.481 5.742,35.493 3.897,33.821 5.742,32.149 7.197,30.159 8.266,27.854 9.33,25.544 9.864,23.068 9.864,20.415 V 0 Z"
         style="fill:#1f120d;fill-opacity:1;fill-rule:nonzero;stroke:none"
         id="path4653"
         inkscape:connector-curvature="0" />
    </g>
    <g
       id="g4655"
       transform="matrix(0.16683688,0,0,-0.1615613,39.832408,258.41329)">
      <path
         d="m 0,0 c -0.603,8.331 -3.774,18.267 -12.738,28.211 -22.295,24.73 -45.568,50.801 -51.585,79.686 0,0 -8.51,-23.113 22.598,-61.514 0,0 -12.184,7.074 -25.218,30.394 0,0 -6.816,-19.816 25.397,-46.304 0,0 -7.268,2.059 -17.787,10.777 0,0 0.213,-12.598 20.652,-23.069 0,0 -11.256,0.774 -17.849,4.149 0,0 5.496,-13.635 24.027,-16.467 0,0 -5.964,-0.275 -18.531,2.832 0,0 8.406,-12.185 22.535,-21.07 -0.946,-0.535 -1.831,-1.082 -2.692,-1.627 -0.024,-0.016 -0.04,-0.026 -0.065,-0.04 1.774,-0.089 3.39,-0.372 4.838,-0.868 1.883,-0.611 3.556,-1.705 5.013,-3.284 0.911,-0.91 1.854,-2.095 2.828,-3.553 0.603,-0.914 1.216,-1.914 1.821,-3.009 0.608,-1.094 1.246,-2.307 1.915,-3.642 0.788,-1.643 1.913,-3.922 3.37,-6.837 0.808,-1.609 1.63,-3.271 2.472,-4.96 0.686,-1.375 1.378,-2.768 2.085,-4.201 1.581,-3.188 3.081,-6.258 4.511,-9.203 1.426,-2.947 2.567,-5.239 3.417,-6.881 0.302,-0.487 0.516,-0.895 0.64,-1.229 0.119,-0.336 0.242,-0.562 0.362,-0.685 0.488,-0.852 0.896,-1.61 1.231,-2.275 0.233,-0.467 0.456,-0.892 0.672,-1.298 v -1.583 c 0,-1.501 -0.432,-2.742 -1.295,-3.723 -0.348,-0.403 -0.837,-0.748 -1.47,-1.034 -0.692,-0.29 -1.415,-0.432 -2.166,-0.432 -0.516,0 -0.993,0.114 -1.425,0.343 -0.433,0.228 -0.808,0.521 -1.122,0.865 -0.321,0.347 -0.595,0.706 -0.821,1.082 -0.234,0.373 -0.436,0.678 -0.607,0.909 -0.291,0.519 -0.592,1.096 -0.907,1.729 -0.321,0.633 -0.71,1.352 -1.169,2.163 -0.119,0.113 -0.234,0.331 -0.348,0.646 -0.115,0.319 -0.318,0.709 -0.605,1.168 -0.808,1.56 -1.885,3.735 -3.246,6.533 -1.354,2.795 -2.781,5.707 -4.281,8.735 -1.497,3.028 -2.94,5.925 -4.325,8.697 -1.382,2.764 -2.45,4.926 -3.196,6.486 -0.636,1.267 -1.245,2.419 -1.822,3.456 -0.572,1.042 -1.152,1.99 -1.727,2.858 -0.922,1.385 -1.819,2.509 -2.683,3.372 -1.382,1.499 -2.971,2.541 -4.755,3.117 -1.676,0.576 -3.578,0.862 -5.708,0.862 -2.136,0 -4.081,-0.389 -5.84,-1.167 -1.761,-0.779 -3.272,-1.834 -4.54,-3.157 -2.599,-2.771 -3.894,-6.2 -3.894,-10.296 v -47.833 h 9.946 v 47.833 c 0,1.5 0.433,2.741 1.302,3.719 0.4,0.407 0.921,0.752 1.554,1.041 0.692,0.287 1.383,0.432 2.074,0.432 0.983,0 1.788,-0.361 2.423,-1.083 0.635,-0.72 1.095,-1.311 1.386,-1.769 0.286,-0.466 0.591,-0.984 0.906,-1.559 0.317,-0.576 0.622,-1.182 0.913,-1.814 0.341,-0.693 0.802,-1.647 1.378,-2.858 0.577,-1.21 1.255,-2.61 2.037,-4.195 0.774,-1.586 1.612,-3.285 2.507,-5.104 0.889,-1.816 1.801,-3.648 2.721,-5.494 0.925,-1.847 1.805,-3.66 2.641,-5.447 0.836,-1.789 1.629,-3.428 2.377,-4.931 0.749,-1.498 1.399,-2.799 1.95,-3.891 0.547,-1.098 0.963,-1.904 1.253,-2.424 0.227,-0.461 0.486,-0.996 0.777,-1.599 0.291,-0.606 0.632,-1.254 1.04,-1.945 0.576,-0.983 1.251,-1.99 2.033,-3.027 0.776,-1.04 1.776,-2.02 2.984,-2.944 1.096,-0.865 2.447,-1.553 4.064,-2.073 0.805,-0.291 1.648,-0.506 2.509,-0.652 0.864,-0.145 1.784,-0.216 2.772,-0.216 2.013,0 3.902,0.391 5.663,1.167 1.756,0.779 3.269,1.834 4.541,3.158 1.328,1.326 2.345,2.871 3.072,4.63 0.719,1.759 1.077,3.646 1.077,5.666 v 3.06 c 0,0.007 0.003,0.013 0.003,0.019 v 24.217 25.108 1.115 h 8.266 c 4.595,6.377 6.971,11.668 8.117,14.843 3.629,4.624 14.331,7.122 14.331,7.122 C 24.872,14.393 7.822,5.384 0,0"
         style="fill:#1f120d;fill-opacity:1;fill-rule:nonzero;stroke:none"
         id="path4657"
         inkscape:connector-curvature="0" />
    </g>
  </g>
</svg>
